<svg width="20" height="20" viewBox="0 0 20 20" fill="none" xmlns="http://www.w3.org/2000/svg">
<g clip-path="url(#clip0_335_293285)">
<path d="M10 20C15.5228 20 20 15.5228 20 10C20 4.47715 15.5228 0 10 0C4.47715 0 0 4.47715 0 10C0 15.5228 4.47715 20 10 20Z" fill="#F0F0F0"/>
<path d="M20.0003 9.9991C20.0003 5.69945 17.2865 2.03402 13.4785 0.621094V19.3771C17.2865 17.9642 20.0003 14.2987 20.0003 9.9991Z" fill="#D80027"/>
<path d="M0 9.9991C0 14.2987 2.71379 17.9642 6.52176 19.3771V0.621094C2.71379 2.03402 0 5.69945 0 9.9991Z" fill="#0052B4"/>
</g>
<defs>
<clipPath id="clip0_335_293285">
<rect width="20" height="20" fill="white"/>
</clipPath>
</defs>
</svg>
