<svg width="20" height="20" viewBox="0 0 20 20" fill="none" xmlns="http://www.w3.org/2000/svg">
<g clip-path="url(#clip0_335_293274)">
<path d="M0.621094 13.4789C2.03402 17.2869 5.69945 20.0007 9.9991 20.0007C14.2987 20.0007 17.9642 17.2869 19.3771 13.4789L9.9991 12.6094L0.621094 13.4789Z" fill="#FFDA44"/>
<path d="M9.9991 0C5.69945 0 2.03402 2.71375 0.621094 6.52176L9.9991 7.39129L19.3771 6.52172C17.9642 2.71375 14.2987 0 9.9991 0Z" fill="black"/>
<path d="M0.621992 6.52148C0.220039 7.6048 0 8.77652 0 9.99973C0 11.2229 0.220039 12.3946 0.621992 13.478H19.378C19.78 12.3946 20 11.2229 20 9.99973C20 8.77652 19.78 7.6048 19.378 6.52148H0.621992Z" fill="#D80027"/>
</g>
<defs>
<clipPath id="clip0_335_293274">
<rect width="20" height="20" fill="white"/>
</clipPath>
</defs>
</svg>
